<svg width="33" height="33" viewBox="0 0 33 33" fill="none" xmlns="http://www.w3.org/2000/svg">
<path fill-rule="evenodd" clip-rule="evenodd" d="M3.25024 1.38187C3.25024 1.17097 3.42848 1 3.64834 1H32.3115C32.5313 1 32.7096 1.17097 32.7096 1.38187V29.004C32.7096 29.2149 32.5313 29.3858 32.3115 29.3858C32.0916 29.3858 31.9134 29.2149 31.9134 29.004V1.76374H3.64834C3.42848 1.76374 3.25024 1.59277 3.25024 1.38187Z" fill="white" stroke="white" stroke-width="0.5"/>
<path d="M3.66804 29.5618L3.79304 29.5618L3.79304 29.4368L3.79304 5.67811L5.41891 7.30398C5.62197 7.50704 5.95119 7.50704 6.15424 7.30398C6.3573 7.10093 6.3573 6.77171 6.15424 6.56865L3.64074 4.05515C3.43769 3.8521 3.10847 3.8521 2.90541 4.05515L0.391915 6.56865C0.188858 6.77171 0.18886 7.10093 0.391915 7.30398C0.594972 7.50704 0.924191 7.50704 1.12725 7.30398L2.75312 5.67811L2.75312 29.4368L2.75312 29.5618L2.87812 29.5618L3.66804 29.5618Z" fill="white" stroke="white" stroke-width="0.25"/>
<path d="M2.75214 29.8319V29.9569H2.87714L26.7603 29.9569L25.1261 31.5826C24.922 31.7857 24.922 32.1152 25.1261 32.3184C25.33 32.5211 25.6601 32.5211 25.8639 32.3184L28.3905 29.8049C28.5947 29.6017 28.5947 29.2722 28.3905 29.0691L25.8639 26.5556C25.6601 26.3528 25.33 26.3528 25.1261 26.5556C24.922 26.7587 24.922 27.0882 25.1261 27.2914L26.7603 28.917L2.87714 28.917H2.75214V29.042V29.8319Z" fill="white" stroke="white" stroke-width="0.25"/>
<path fill-rule="evenodd" clip-rule="evenodd" d="M14.1625 1.11568C14.3167 1.26992 14.3167 1.51999 14.1625 1.67424L9.42295 6.41373C9.26871 6.56797 9.01864 6.56797 8.8644 6.41373C8.71016 6.25949 8.71016 6.00942 8.8644 5.85518L13.6039 1.11568C13.7581 0.96144 14.0082 0.96144 14.1625 1.11568Z" fill="white" stroke="white" stroke-width="0.5" stroke-linecap="round" stroke-linejoin="round"/>
<path fill-rule="evenodd" clip-rule="evenodd" d="M32.4622 19.942C32.6165 20.0962 32.6165 20.3463 32.4622 20.5005L28.1177 24.8451C27.9634 24.9993 27.7134 24.9993 27.5591 24.8451C27.4049 24.6908 27.4049 24.4408 27.5591 24.2865L31.9037 19.942C32.0579 19.7877 32.308 19.7877 32.4622 19.942Z" fill="white" stroke="white" stroke-width="0.5" stroke-linecap="round" stroke-linejoin="round"/>
<path fill-rule="evenodd" clip-rule="evenodd" d="M20.085 1.11391C20.2402 1.26716 20.2418 1.51723 20.0886 1.67245L9.81966 12.073C9.6664 12.2282 9.41633 12.2298 9.26111 12.0766C9.10589 11.9233 9.1043 11.6732 9.25755 11.518L19.5265 1.11747C19.6797 0.962245 19.9298 0.960652 20.085 1.11391Z" fill="white" stroke="white" stroke-width="0.5" stroke-linecap="round" stroke-linejoin="round"/>
<path fill-rule="evenodd" clip-rule="evenodd" d="M32.5938 13.3589C32.7481 13.5131 32.7481 13.7632 32.5938 13.9175L22.5882 23.9231C22.434 24.0773 22.1839 24.0773 22.0297 23.9231C21.8754 23.7688 21.8754 23.5188 22.0297 23.3645L32.0353 13.3589C32.1895 13.2047 32.4396 13.2047 32.5938 13.3589Z" fill="white" stroke="white" stroke-width="0.5" stroke-linecap="round" stroke-linejoin="round"/>
<path fill-rule="evenodd" clip-rule="evenodd" d="M26.4084 1.24898C26.5614 1.40446 26.5594 1.65453 26.4039 1.80752L9.9473 18.0008C9.79182 18.1538 9.54176 18.1518 9.38877 17.9963C9.23578 17.8408 9.23779 17.5908 9.39327 17.4378L25.8499 1.24448C26.0053 1.09149 26.2554 1.0935 26.4084 1.24898Z" fill="white" stroke="white" stroke-width="0.5" stroke-linecap="round" stroke-linejoin="round"/>
<path fill-rule="evenodd" clip-rule="evenodd" d="M32.5939 7.17153C32.7481 7.32577 32.7481 7.57584 32.5939 7.73008L16.0057 24.3183C15.8514 24.4726 15.6013 24.4726 15.4471 24.3183C15.2929 24.1641 15.2929 23.914 15.4471 23.7598L32.0353 7.17153C32.1896 7.01729 32.4397 7.01729 32.5939 7.17153Z" fill="white" stroke="white" stroke-width="0.5" stroke-linecap="round" stroke-linejoin="round"/>
<path fill-rule="evenodd" clip-rule="evenodd" d="M32.3306 1.24672C32.4848 1.40096 32.4848 1.65104 32.3306 1.80528L9.68632 24.4495C9.53208 24.6038 9.28201 24.6038 9.12777 24.4495C8.97352 24.2953 8.97352 24.0452 9.12777 23.891L31.772 1.24672C31.9263 1.09248 32.1763 1.09248 32.3306 1.24672Z" fill="white" stroke="white" stroke-width="0.5" stroke-linecap="round" stroke-linejoin="round"/>
</svg>
